<svg width="100" height="100" viewBox="0 0 100 100" fill="none" xmlns="http://www.w3.org/2000/svg">
<path d="M50 97C75.9574 97 97 75.9574 97 50C97 24.0426 75.9574 3 50 3C24.0426 3 3 24.0426 3 50C3 75.9574 24.0426 97 50 97Z" fill="#27957E"/>
<path d="M91.3854 52.2435C92.6252 52.2435 93.6302 51.2384 93.6302 49.9987C93.6302 48.7589 92.6252 47.7539 91.3854 47.7539C90.1456 47.7539 89.1406 48.7589 89.1406 49.9987C89.1406 51.2384 90.1456 52.2435 91.3854 52.2435Z" fill="#0A1329"/>
<path d="M8.61001 52.2435C9.84977 52.2435 10.8548 51.2384 10.8548 49.9987C10.8548 48.7589 9.84977 47.7539 8.61001 47.7539C7.37025 47.7539 6.36523 48.7589 6.36523 49.9987C6.36523 51.2384 7.37025 52.2435 8.61001 52.2435Z" fill="#0A1329"/>
<path d="M50.0001 86.8986C70.3785 86.8986 86.8986 70.3785 86.8986 50.0001C86.8986 29.6216 70.3785 13.1016 50.0001 13.1016C29.6216 13.1016 13.1016 29.6216 13.1016 50.0001C13.1016 70.3785 29.6216 86.8986 50.0001 86.8986Z" fill="#0A1329"/>
<path d="M68.3777 35.8281H31.6194C29.9359 35.8281 28.3926 37.2311 28.3926 39.055V60.9416C28.3926 62.6251 29.7956 64.1684 31.6194 64.1684H68.2374C69.9209 64.1684 71.4642 62.7654 71.4642 60.9416V39.055C71.4642 37.2311 70.0612 35.8281 68.3777 35.8281ZM68.9388 39.4759L50.4194 49.7177C50.2791 49.7177 50.1388 49.858 49.9985 49.858C49.8582 49.858 49.718 49.858 49.5777 49.7177L31.0582 39.4759C30.6374 39.3356 30.6374 38.7744 30.7777 38.4938C30.9179 38.0729 31.4791 38.0729 31.7597 38.2132L49.9985 48.3147L68.2374 38.2132C68.6582 38.0729 69.0791 38.2132 69.2194 38.4938C69.3597 38.9147 69.3597 39.3356 68.9388 39.4759Z" fill="white"/>
</svg>
