<svg width="173" height="50" viewBox="0 0 173 50" fill="none" xmlns="http://www.w3.org/2000/svg">
<path d="M52.0265 49.67C45.7034 35.1724 39.3831 20.6742 33.0598 6.17606C33.0485 6.15017 33.0387 6.12578 33.0276 6.09964C32.0187 4.05027 31.2113 1.66081 29.356 0.216727C28.9468 -0.101499 28.4269 0.0246836 27.9222 0.0246836H23.7614H21.4938C20.6895 0.0246836 19.6144 1.80308 19.3175 2.40359C18.537 3.98793 17.7115 5.55669 16.9786 7.1614C15.3573 10.7089 13.7063 14.2448 12.0793 17.788C11.0449 20.0372 10.0135 22.2852 8.97918 24.5329C8.71148 25.1173 8.44252 25.703 8.17482 26.2874C7.76987 27.1674 4.56499 25.5011 3.8838 25.2377C3.85589 25.2264 3.82925 25.2153 3.79984 25.204C3.67944 25.1578 3.57436 25.2558 3.53239 25.3553C2.36078 28.248 1.18917 31.1392 0.0147995 34.0302C-0.017375 34.1114 0.0344061 34.2405 0.115597 34.2755C3.17771 35.6039 6.32956 37.0322 9.66063 37.4917C13.4248 38.013 16.2612 36.068 18.1881 33.0018C19.5292 30.8705 20.4416 28.3896 21.4913 26.1067C21.9495 25.1062 22.4653 24.1302 22.9251 23.1255C23.6412 21.553 25.0622 18.9051 26.556 21.4801C28.2294 24.3677 29.3474 27.7114 30.6902 30.7582C32.8778 35.7248 35.0654 40.6898 37.2543 45.6577C37.8666 47.0478 38.4805 48.4393 39.0943 49.8296C39.1237 49.8982 39.2107 49.9377 39.2821 49.9377C43.4668 49.9573 47.6527 49.9784 51.8372 49.9993C52.0182 49.9993 52.0896 49.817 52.0265 49.67Z" fill="#299E84"/>
<path d="M30.3453 44.6719C30.3453 47.5013 28.0513 49.7955 25.2202 49.7955C22.3909 49.7955 20.0967 47.5013 20.0967 44.6719C20.0967 41.8423 22.3906 39.5469 25.2202 39.5469C28.0513 39.5469 30.3453 41.8423 30.3453 44.6719Z" fill="#979797"/>
<path d="M72.8272 17.2435C73.71 18.027 74.1516 19.2105 74.1516 20.7913V26.862H71.2662V25.5365C70.6848 26.5259 69.6057 27.0206 68.0219 27.0206C67.2049 27.0206 66.4973 26.8816 65.8973 26.6043C65.2976 26.3281 64.8378 25.9455 64.5226 25.4579C64.2059 24.9702 64.0488 24.4164 64.0488 23.7973C64.0488 22.8085 64.4203 22.0308 65.1644 21.4647C65.9099 20.8971 67.0591 20.6141 68.6146 20.6141H71.0671C71.0671 19.9414 70.8625 19.4251 70.4546 19.0619C70.0453 18.6989 69.433 18.5182 68.6146 18.5182C68.0485 18.5182 67.492 18.6072 66.9455 18.7851C66.3976 18.9626 65.9323 19.2037 65.5512 19.5068L64.4427 17.3514C65.0229 16.9429 65.7179 16.6262 66.5293 16.402C67.3407 16.1778 68.1744 16.0664 69.0308 16.0664C70.6773 16.0664 71.9442 16.4588 72.8272 17.2435ZM70.1967 24.5778C70.6059 24.334 70.8945 23.9761 71.0669 23.501V22.4128H68.9522C67.6866 22.4128 67.0519 22.8283 67.0519 23.6601C67.0519 24.054 67.209 24.3677 67.5171 24.5984C67.8283 24.8297 68.2529 24.9446 68.7938 24.9446C69.3194 24.9446 69.789 24.8224 70.1967 24.5778Z" fill="#0A1329"/>
<path d="M88.0508 16.2227V26.8606H85.1247V25.5953C84.7155 26.0578 84.2291 26.4094 83.6615 26.6532C83.0955 26.8973 82.4831 27.0192 81.8231 27.0192C80.4257 27.0192 79.32 26.6168 78.5018 25.8109C77.6849 25.0088 77.2756 23.8156 77.2756 22.2333V16.2227H80.3601V21.7793C80.3601 23.4926 81.0775 24.3495 82.5156 24.3495C83.2541 24.3495 83.8483 24.1092 84.294 23.6278C84.7439 23.1462 84.9666 22.4316 84.9666 21.483V16.2227H88.0508Z" fill="#0A1329"/>
<path d="M98.1759 26.347C97.872 26.5725 97.5003 26.7396 97.0591 26.8515C96.6177 26.9636 96.1525 27.0199 95.6648 27.0199C94.3992 27.0199 93.4196 26.6959 92.7274 26.0502C92.0364 25.4057 91.6903 24.456 91.6903 23.2032V18.8335H90.0479V16.4616H91.6903V13.8711H94.7747V16.4616H97.4249V18.8335H94.7747V23.164C94.7747 23.6117 94.8911 23.9593 95.1209 24.2024C95.3521 24.4462 95.6786 24.5684 96.0994 24.5684C96.5868 24.5684 97.0018 24.4367 97.3464 24.1725L98.1759 26.347Z" fill="#0A1329"/>
<path d="M102.023 26.3186C101.133 25.8505 100.436 25.2003 99.9344 24.3693C99.4355 23.5388 99.1833 22.5971 99.1833 21.5419C99.1833 20.4867 99.4355 19.5448 99.9344 18.7146C100.436 17.8836 101.133 17.2353 102.023 16.7665C102.911 16.2992 103.916 16.065 105.036 16.065C106.158 16.065 107.159 16.299 108.042 16.7665C108.924 17.2353 109.617 17.8833 110.117 18.7146C110.62 19.5448 110.869 20.4867 110.869 21.5419C110.869 22.5971 110.62 23.5388 110.117 24.3693C109.617 25.2003 108.924 25.8505 108.042 26.3186C107.159 26.7851 106.158 27.0194 105.036 27.0194C103.916 27.0194 102.911 26.7854 102.023 26.3186ZM106.985 23.6873C107.492 23.1542 107.746 22.4388 107.746 21.5419C107.746 20.6458 107.492 19.9302 106.985 19.397C106.476 18.8624 105.827 18.5949 105.036 18.5949C104.247 18.5949 103.594 18.8624 103.079 19.397C102.563 19.9304 102.309 20.6458 102.309 21.5419C102.309 22.4388 102.564 23.1542 103.079 23.6873C103.594 24.2207 104.247 24.4884 105.036 24.4884C105.827 24.4884 106.476 24.2207 106.985 23.6873ZM105.868 12.0117H109.189L105.61 14.8587H103.198L105.868 12.0117Z" fill="#0A1329"/>
<path d="M122.979 17.2531C123.791 18.0436 124.196 19.2173 124.196 20.7722V26.862H121.111V21.2465C121.111 20.4029 120.926 19.7738 120.556 19.3583C120.189 18.9428 119.655 18.7354 118.956 18.7354C118.176 18.7354 117.558 18.9764 117.097 19.4571C116.636 19.9392 116.406 20.6525 116.406 21.6027V26.862H113.322V16.224H116.268V17.4693C116.674 17.0221 117.183 16.6767 117.79 16.4321C118.396 16.1876 119.061 16.0664 119.786 16.0664C121.105 16.0662 122.171 16.4621 122.979 17.2531Z" fill="#0A1329"/>
<path d="M129.546 26.3183C128.656 25.8502 127.958 25.2015 127.459 24.3705C126.959 23.54 126.708 22.5983 126.708 21.5431C126.708 20.4879 126.959 19.546 127.459 18.7158C127.958 17.8848 128.656 17.2365 129.546 16.7685C130.436 16.3004 131.439 16.0664 132.559 16.0664C133.681 16.0664 134.682 16.3004 135.566 16.7685C136.449 17.2365 137.14 17.8848 137.642 18.7158C138.143 19.546 138.393 20.4879 138.393 21.5431C138.393 22.5983 138.143 23.54 137.642 24.3705C137.14 25.2015 136.449 25.8502 135.566 26.3183C134.682 26.7863 133.681 27.0206 132.559 27.0206C131.439 27.0206 130.436 26.7866 129.546 26.3183ZM134.508 23.6885C135.016 23.1554 135.269 22.4392 135.269 21.5431C135.269 20.647 135.015 19.9314 134.508 19.3982C134 18.8636 133.352 18.5969 132.559 18.5969C131.77 18.5969 131.115 18.8638 130.602 19.3982C130.088 19.9316 129.832 20.647 129.832 21.5431C129.832 22.4392 130.088 23.1554 130.602 23.6885C131.115 24.2227 131.77 24.4896 132.559 24.4896C133.352 24.4896 133.999 24.2227 134.508 23.6885Z" fill="#0A1329"/>
<path d="M157.641 17.2433C158.427 18.0268 158.819 19.2032 158.819 20.7722V26.862H155.735V21.2465C155.735 20.4029 155.558 19.7738 155.209 19.3583C154.861 18.9428 154.363 18.7354 153.716 18.7354C152.992 18.7354 152.418 18.9694 151.996 19.4374C151.576 19.9047 151.364 20.6013 151.364 21.5228V26.862H148.278V21.2465C148.278 19.5727 147.607 18.7354 146.263 18.7354C145.549 18.7354 144.983 18.9694 144.561 19.4374C144.141 19.9047 143.929 20.6013 143.929 21.5228V26.862H140.845V16.224H143.792V17.4504C144.184 17.0027 144.67 16.6599 145.245 16.4216C145.817 16.1848 146.444 16.0664 147.131 16.0664C147.882 16.0664 148.562 16.2142 149.169 16.5101C149.774 16.8079 150.262 17.24 150.632 17.8063C151.067 17.2528 151.617 16.8245 152.283 16.5211C152.948 16.2177 153.677 16.0664 154.467 16.0664C155.798 16.0662 156.858 16.4585 157.641 17.2433Z" fill="#0A1329"/>
<path d="M164.149 26.3183C163.26 25.8502 162.562 25.2015 162.061 24.3705C161.561 23.54 161.31 22.5983 161.31 21.5431C161.31 20.4879 161.561 19.546 162.061 18.7158C162.561 17.8848 163.26 17.2365 164.149 16.7685C165.038 16.3004 166.043 16.0664 167.162 16.0664C168.283 16.0664 169.285 16.3004 170.168 16.7685C171.053 17.2365 171.745 17.8848 172.244 18.7158C172.746 19.546 172.995 20.4879 172.995 21.5431C172.995 22.5983 172.746 23.54 172.244 24.3705C171.745 25.2015 171.053 25.8502 170.168 26.3183C169.285 26.7863 168.283 27.0206 167.162 27.0206C166.043 27.0206 165.038 26.7866 164.149 26.3183ZM169.11 23.6885C169.618 23.1554 169.873 22.4392 169.873 21.5431C169.873 20.647 169.617 19.9314 169.11 19.3982C168.603 18.8636 167.954 18.5969 167.162 18.5969C166.372 18.5969 165.719 18.8638 165.206 19.3982C164.69 19.9316 164.435 20.647 164.435 21.5431C164.435 22.4392 164.69 23.1554 165.206 23.6885C165.719 24.2227 166.372 24.4896 167.162 24.4896C167.954 24.4896 168.603 24.2227 169.11 23.6885Z" fill="#0A1329"/>
<path d="M67.8905 31.6059C68.2914 31.9407 68.4918 32.399 68.4918 32.9847C68.4918 33.5706 68.2914 34.0301 67.8905 34.3636C67.4911 34.6985 66.9419 34.8654 66.2426 34.8654H64.9098V36.498H64.1392V31.1055H66.2428C66.9416 31.1055 67.4911 31.2721 67.8905 31.6059ZM67.3368 33.883C67.5931 33.6741 67.7221 33.3755 67.7221 32.9847C67.7221 32.5938 67.5931 32.2952 67.3368 32.088C67.0789 31.8804 66.7061 31.7753 66.22 31.7753H64.9096V34.1942H66.22C66.7063 34.194 67.0789 34.0904 67.3368 33.883Z" fill="#0A1329"/>
<path d="M71.6513 32.5598C71.9021 32.4366 72.209 32.375 72.5677 32.375V33.0911C72.527 33.0869 72.471 33.0841 72.3983 33.0841C71.9989 33.0841 71.6837 33.2035 71.4552 33.4415C71.2255 33.6811 71.1118 34.0229 71.1118 34.4631V36.4966H70.3718V32.4142H71.0809V33.0997C71.2086 32.8624 71.3992 32.6834 71.6513 32.5598Z" fill="#0A1329"/>
<path d="M75.0192 36.2734C74.6954 36.0939 74.4418 35.8461 74.2598 35.5306C74.0776 35.2139 73.9866 34.855 73.9866 34.4558C73.9866 34.0536 74.0776 33.6964 74.2598 33.381C74.442 33.0642 74.6957 32.8179 75.0192 32.6412C75.3417 32.4632 75.7074 32.375 76.1123 32.375C76.5188 32.375 76.8818 32.4632 77.2028 32.6412C77.5235 32.8179 77.7759 33.0645 77.9581 33.381C78.1404 33.6964 78.2313 34.0539 78.2313 34.4558C78.2313 34.8552 78.1404 35.2142 77.9581 35.5306C77.7759 35.8461 77.5235 36.0939 77.2028 36.2734C76.8818 36.4541 76.5188 36.5439 76.1123 36.5439C75.7074 36.5439 75.3417 36.4541 75.0192 36.2734ZM76.8187 35.7156C77.0261 35.5937 77.1902 35.424 77.3078 35.2056C77.4255 34.9884 77.4845 34.7388 77.4845 34.4558C77.4845 34.1728 77.4257 33.9219 77.3078 33.7047C77.1902 33.4863 77.0261 33.3181 76.8187 33.1987C76.6098 33.0811 76.3745 33.0223 76.1123 33.0223C75.8504 33.0223 75.6162 33.0811 75.4075 33.1987C75.2001 33.3181 75.0348 33.4863 74.9144 33.7047C74.7939 33.9219 74.7336 34.1728 74.7336 34.4558C74.7336 34.7388 74.7939 34.9884 74.9144 35.2056C75.0348 35.424 75.2001 35.5937 75.4075 35.7156C75.6164 35.836 75.8504 35.8963 76.1123 35.8963C76.3745 35.8963 76.6098 35.8363 76.8187 35.7156Z" fill="#0A1329"/>
<path d="M80.8477 36.2734C80.5211 36.0939 80.266 35.8461 80.081 35.5306C79.896 35.2139 79.8022 34.855 79.8022 34.4558C79.8022 34.0536 79.8963 33.6964 80.081 33.381C80.266 33.0642 80.5209 32.8179 80.8477 32.6412C81.1727 32.4632 81.5442 32.375 81.9605 32.375C82.3305 32.375 82.6613 32.4507 82.9511 32.5977C83.2412 32.7478 83.4654 32.9634 83.6237 33.2452L83.0632 33.6082C82.9342 33.4134 82.7746 33.2661 82.5853 33.1693C82.3948 33.0713 82.1832 33.0223 81.9534 33.0223C81.6857 33.0223 81.4447 33.0811 81.233 33.1987C81.0186 33.3181 80.8532 33.4863 80.7313 33.7047C80.6109 33.9219 80.5506 34.1728 80.5506 34.4558C80.5506 34.7434 80.6109 34.9952 80.7313 35.2141C80.8532 35.4326 81.0186 35.601 81.233 35.7186C81.4447 35.8365 81.6857 35.8966 81.9534 35.8966C82.1832 35.8966 82.3948 35.8476 82.5853 35.7496C82.7746 35.6528 82.9342 35.507 83.0632 35.3109L83.6237 35.6653C83.4654 35.9471 83.2412 36.1641 82.9511 36.3171C82.661 36.4687 82.3302 36.5441 81.9605 36.5441C81.5442 36.5439 81.1727 36.4541 80.8477 36.2734Z" fill="#0A1329"/>
<path d="M89.1189 34.7029H85.8059C85.8522 35.0618 86.0105 35.3504 86.2795 35.5688C86.55 35.7875 86.885 35.8969 87.2844 35.8969C87.7736 35.8969 88.166 35.7315 88.4643 35.4034L88.8721 35.8813C88.6871 36.0969 88.4573 36.2611 88.1841 36.3747C87.9081 36.4868 87.6012 36.5444 87.2621 36.5444C86.8305 36.5444 86.4479 36.4546 86.1143 36.2779C85.7793 36.1015 85.5229 35.8521 85.3394 35.5339C85.1571 35.2157 85.0662 34.8555 85.0662 34.456C85.0662 34.0611 85.1544 33.7022 85.3323 33.384C85.5091 33.0657 85.7529 32.8179 86.0641 32.6412C86.375 32.4632 86.7254 32.375 87.1165 32.375C87.5061 32.375 87.8538 32.4632 88.1607 32.6412C88.4661 32.8179 88.7044 33.0657 88.8768 33.384C89.0495 33.7022 89.1347 34.0679 89.1347 34.4784C89.1342 34.5362 89.13 34.6104 89.1189 34.7029ZM86.2249 33.3226C85.9882 33.5398 85.8466 33.8213 85.8059 34.1705H88.4264C88.3844 33.8271 88.2441 33.5453 88.0061 33.3269C87.7663 33.1097 87.4707 33.0004 87.116 33.0004C86.7616 33.0001 86.4645 33.108 86.2249 33.3226Z" fill="#0A1329"/>
<path d="M91.2923 36.4079C90.9839 36.3181 90.7416 36.2045 90.5676 36.0645L90.876 35.4801C91.0553 35.6078 91.2727 35.7114 91.5306 35.7885C91.7872 35.8657 92.0464 35.9036 92.3098 35.9036C92.9558 35.9036 93.2796 35.7186 93.2796 35.3501C93.2796 35.2255 93.2361 35.1287 93.1491 35.0558C93.0622 34.9844 92.9516 34.9324 92.8211 34.8974C92.6896 34.865 92.5044 34.8273 92.2633 34.7868C91.9338 34.735 91.6663 34.6762 91.4574 34.6101C91.2501 34.5428 91.0709 34.4306 90.9221 34.271C90.7722 34.1124 90.6991 33.8872 90.6991 33.5996C90.6991 33.2296 90.8532 32.934 91.1604 32.7098C91.4688 32.4868 91.882 32.375 92.4008 32.375C92.6738 32.375 92.9458 32.4084 93.2178 32.4755C93.491 32.5416 93.7137 32.6311 93.8874 32.7448L93.5722 33.3304C93.2389 33.1148 92.8462 33.0052 92.3938 33.0052C92.0813 33.0052 91.8418 33.0572 91.6764 33.1608C91.5125 33.2646 91.4308 33.399 91.4308 33.5687C91.4308 33.7017 91.4773 33.8068 91.5698 33.8854C91.6621 33.9626 91.7757 34.0184 91.9129 34.0536C92.0474 34.09 92.2397 34.132 92.4863 34.1768C92.8156 34.2331 93.0803 34.2947 93.2836 34.3578C93.487 34.4236 93.6591 34.5327 93.8034 34.687C93.9477 34.8399 94.0191 35.0558 94.0191 35.3346C94.0191 35.7046 93.8607 35.9974 93.5455 36.2161C93.2288 36.4333 92.7982 36.5441 92.2548 36.5441C91.9215 36.5439 91.6007 36.4974 91.2923 36.4079Z" fill="#0A1329"/>
<path d="M96.5231 36.2734C96.1993 36.0939 95.9472 35.8461 95.7637 35.5306C95.5815 35.2139 95.4905 34.855 95.4905 34.4558C95.4905 34.0536 95.5815 33.6964 95.7637 33.381C95.9472 33.0642 96.1993 32.8179 96.5231 32.6412C96.8468 32.4632 97.2111 32.375 97.6175 32.375C98.0225 32.375 98.3869 32.4632 98.7079 32.6412C99.0287 32.8179 99.2808 33.0645 99.463 33.381C99.6455 33.6964 99.7365 34.0539 99.7365 34.4558C99.7365 34.8552 99.6455 35.2142 99.463 35.5306C99.2808 35.8461 99.0287 36.0939 98.7079 36.2734C98.3869 36.4541 98.0225 36.5439 97.6175 36.5439C97.2111 36.5439 96.8468 36.4541 96.5231 36.2734ZM98.3226 35.7156C98.5297 35.5937 98.6938 35.424 98.8115 35.2056C98.9294 34.9884 98.9895 34.7388 98.9895 34.4558C98.9895 34.1728 98.9294 33.9219 98.8115 33.7047C98.6936 33.4863 98.5297 33.3181 98.3226 33.1987C98.1137 33.0811 97.8797 33.0223 97.6175 33.0223C97.3553 33.0223 97.1201 33.0811 96.9124 33.1987C96.7038 33.3181 96.5399 33.4863 96.4193 33.7047C96.2989 33.9219 96.2383 34.1728 96.2383 34.4558C96.2383 34.7388 96.2986 34.9884 96.4193 35.2056C96.5397 35.424 96.7038 35.5937 96.9124 35.7156C97.1201 35.836 97.3553 35.8963 97.6175 35.8963C97.8797 35.8963 98.1137 35.8363 98.3226 35.7156Z" fill="#0A1329"/>
<path d="M105.561 31.1055H104.791V36.498H105.561V31.1055Z" fill="#0A1329"/>
<path d="M111.415 32.8262C111.719 33.1261 111.872 33.566 111.872 34.1476V36.4966H111.132V34.2318C111.132 33.8367 111.038 33.5396 110.848 33.3377C110.658 33.1386 110.385 33.0379 110.03 33.0379C109.631 33.0379 109.314 33.1557 109.083 33.3882C108.852 33.6223 108.737 33.9573 108.737 34.3945V36.4966H107.997V32.413H108.706V33.0308C108.854 32.8192 109.057 32.6583 109.31 32.5444C109.565 32.4311 109.854 32.375 110.177 32.375C110.696 32.375 111.108 32.5248 111.415 32.8262Z" fill="#0A1329"/>
<path d="M118.043 30.7773V36.4936H117.336V35.8461C117.171 36.0731 116.963 36.2455 116.711 36.3634C116.459 36.4825 116.183 36.5414 115.88 36.5414C115.483 36.5414 115.129 36.4529 114.816 36.2792C114.502 36.104 114.257 35.8589 114.079 35.5434C113.902 35.2267 113.813 34.8638 113.813 34.453C113.813 34.041 113.902 33.6796 114.079 33.3671C114.257 33.0532 114.502 32.8094 114.816 32.6342C115.129 32.4592 115.483 32.3722 115.88 32.3722C116.172 32.3722 116.442 32.4268 116.689 32.5374C116.934 32.6495 117.14 32.8106 117.305 33.0278V30.7773H118.043ZM116.642 35.7131C116.852 35.5912 117.016 35.4215 117.136 35.2031C117.253 34.9859 117.312 34.7363 117.312 34.4533C117.312 34.1703 117.253 33.9194 117.136 33.7022C117.016 33.4838 116.852 33.3156 116.642 33.1962C116.431 33.0786 116.198 33.0198 115.942 33.0198C115.68 33.0198 115.444 33.0786 115.235 33.1962C115.026 33.3156 114.862 33.4838 114.743 33.7022C114.621 33.9194 114.561 34.1703 114.561 34.4533C114.561 34.7363 114.621 34.9859 114.743 35.2031C114.862 35.4215 115.026 35.5912 115.235 35.7131C115.444 35.8335 115.68 35.8938 115.942 35.8938C116.198 35.8938 116.431 35.8338 116.642 35.7131Z" fill="#0A1329"/>
<path d="M124.047 34.7029H120.734C120.779 35.0618 120.937 35.3504 121.206 35.5688C121.477 35.7875 121.811 35.8969 122.212 35.8969C122.7 35.8969 123.092 35.7315 123.391 35.4034L123.8 35.8813C123.614 36.0969 123.385 36.2611 123.111 36.3747C122.835 36.4868 122.529 36.5444 122.189 36.5444C121.757 36.5444 121.376 36.4546 121.041 36.2779C120.707 36.1015 120.449 35.8521 120.266 35.5339C120.084 35.2157 119.994 34.8555 119.994 34.456C119.994 34.0611 120.081 33.7022 120.259 33.384C120.436 33.0657 120.681 32.8179 120.992 32.6412C121.301 32.4632 121.652 32.375 122.043 32.375C122.433 32.375 122.782 32.4632 123.087 32.6412C123.393 32.8179 123.631 33.0657 123.803 33.384C123.975 33.7022 124.061 34.0679 124.061 34.4784C124.061 34.5362 124.057 34.6104 124.047 34.7029ZM121.151 33.3226C120.913 33.5398 120.775 33.8213 120.734 34.1705H123.353C123.311 33.8271 123.172 33.5453 122.934 33.3269C122.693 33.1097 122.397 33.0004 122.043 33.0004C121.688 33.0004 121.391 33.108 121.151 33.3226Z" fill="#0A1329"/>
<path d="M129.241 32.6369C129.553 32.8121 129.799 33.0559 129.975 33.3699C130.153 33.6823 130.241 34.0441 130.241 34.4558C130.241 34.8665 130.153 35.2295 129.975 35.5462C129.799 35.8617 129.553 36.1065 129.241 36.282C128.925 36.4556 128.572 36.5441 128.175 36.5441C127.884 36.5441 127.615 36.4866 127.371 36.3744C127.127 36.2608 126.92 36.097 126.752 35.881V37.9915H126.012V32.4127H126.72V33.06C126.883 32.8345 127.092 32.6636 127.344 32.5487C127.595 32.4323 127.873 32.375 128.175 32.375C128.572 32.375 128.925 32.462 129.241 32.6369ZM128.82 35.7159C129.028 35.594 129.193 35.4243 129.313 35.2059C129.434 34.9887 129.494 34.7391 129.494 34.4561C129.494 34.173 129.434 33.9221 129.313 33.705C129.193 33.4865 129.028 33.3184 128.82 33.199C128.611 33.0813 128.377 33.0225 128.115 33.0225C127.857 33.0225 127.626 33.0841 127.417 33.2035C127.21 33.3239 127.045 33.4921 126.924 33.708C126.804 33.9237 126.743 34.1733 126.743 34.4563C126.743 34.7393 126.804 34.9889 126.92 35.2061C127.039 35.4245 127.203 35.5942 127.414 35.7161C127.625 35.8365 127.857 35.8969 128.115 35.8969C128.377 35.8966 128.611 35.8365 128.82 35.7159Z" fill="#0A1329"/>
<path d="M135.867 34.7029H132.554C132.599 35.0618 132.757 35.3504 133.026 35.5688C133.297 35.7875 133.632 35.8969 134.032 35.8969C134.52 35.8969 134.914 35.7315 135.212 35.4034L135.62 35.8813C135.435 36.0969 135.205 36.2611 134.931 36.3747C134.656 36.4868 134.349 36.5444 134.01 36.5444C133.578 36.5444 133.196 36.4546 132.862 36.2779C132.529 36.1015 132.269 35.8521 132.087 35.5339C131.904 35.2157 131.814 34.8555 131.814 34.456C131.814 34.0611 131.902 33.7022 132.079 33.384C132.257 33.0657 132.501 32.8179 132.812 32.6412C133.122 32.4632 133.473 32.375 133.863 32.375C134.254 32.375 134.602 32.4632 134.908 32.6412C135.214 32.8179 135.452 33.0657 135.625 33.384C135.796 33.7022 135.882 34.0679 135.882 34.4784C135.882 34.5362 135.877 34.6104 135.867 34.7029ZM132.973 33.3226C132.735 33.5398 132.593 33.8213 132.554 34.1705H135.173C135.133 33.8271 134.992 33.5453 134.753 33.3269C134.515 33.1097 134.217 33.0004 133.863 33.0004C133.509 33.0004 133.213 33.108 132.973 33.3226Z" fill="#0A1329"/>
<path d="M141.249 32.8262C141.553 33.1261 141.707 33.566 141.707 34.1476V36.4966H140.967V34.2318C140.967 33.8367 140.872 33.5396 140.683 33.3377C140.491 33.1386 140.219 33.0379 139.866 33.0379C139.465 33.0379 139.148 33.1557 138.917 33.3882C138.686 33.6223 138.571 33.9573 138.571 34.3945V36.4966H137.831V32.413H138.54V33.0308C138.689 32.8192 138.891 32.6583 139.144 32.5444C139.399 32.4311 139.688 32.375 140.011 32.375C140.53 32.375 140.942 32.5248 141.249 32.8262Z" fill="#0A1329"/>
<path d="M147.878 30.7773V36.4936H147.169V35.8461C147.005 36.0731 146.798 36.2455 146.545 36.3634C146.295 36.4825 146.017 36.5414 145.713 36.5414C145.318 36.5414 144.963 36.4529 144.651 36.2792C144.338 36.104 144.091 35.8589 143.913 35.5434C143.737 35.2267 143.648 34.8638 143.648 34.453C143.648 34.041 143.737 33.6796 143.913 33.3671C144.091 33.0532 144.338 32.8094 144.651 32.6342C144.963 32.4592 145.317 32.3722 145.713 32.3722C146.007 32.3722 146.276 32.4268 146.523 32.5374C146.77 32.6495 146.974 32.8106 147.139 33.0278V30.7773H147.878ZM146.477 35.7131C146.688 35.5912 146.851 35.4215 146.97 35.2031C147.088 34.9859 147.146 34.7363 147.146 34.4533C147.146 34.1703 147.088 33.9194 146.97 33.7022C146.851 33.4838 146.688 33.3156 146.477 33.1962C146.265 33.0786 146.031 33.0198 145.774 33.0198C145.514 33.0198 145.278 33.0786 145.069 33.1962C144.862 33.3156 144.697 33.4838 144.577 33.7022C144.456 33.9194 144.395 34.1703 144.395 34.4533C144.395 34.7363 144.456 34.9859 144.577 35.2031C144.697 35.4215 144.862 35.5912 145.069 35.7131C145.278 35.8335 145.514 35.8938 145.774 35.8938C146.031 35.8938 146.265 35.8338 146.477 35.7131Z" fill="#0A1329"/>
<path d="M150.217 31.4895C150.123 31.3968 150.074 31.2834 150.074 31.1502C150.074 31.017 150.123 30.9021 150.217 30.8068C150.311 30.7116 150.432 30.6641 150.575 30.6641C150.719 30.6641 150.839 30.7103 150.933 30.7985C151.029 30.8895 151.076 31.0004 151.076 31.1349C151.076 31.2736 151.029 31.39 150.933 31.4853C150.839 31.5805 150.719 31.6268 150.575 31.6268C150.432 31.6265 150.311 31.5818 150.217 31.4895ZM150.206 32.4128H150.946V36.4965H150.206V32.4128Z" fill="#0A1329"/>
<path d="M156.956 34.7029H153.641C153.688 35.0618 153.846 35.3504 154.115 35.5688C154.386 35.7875 154.72 35.8969 155.12 35.8969C155.609 35.8969 156.001 35.7315 156.3 35.4034L156.708 35.8813C156.523 36.0969 156.293 36.2611 156.018 36.3747C155.744 36.4868 155.437 36.5444 155.098 36.5444C154.667 36.5444 154.283 36.4546 153.95 36.2779C153.616 36.1015 153.357 35.8521 153.175 35.5339C152.993 35.2157 152.902 34.8555 152.902 34.456C152.902 34.0611 152.99 33.7022 153.168 33.384C153.344 33.0657 153.59 32.8179 153.9 32.6412C154.21 32.4632 154.561 32.375 154.952 32.375C155.342 32.375 155.689 32.4632 155.996 32.6412C156.302 32.8179 156.54 33.0657 156.712 33.384C156.885 33.7022 156.97 34.0679 156.97 34.4784C156.97 34.5362 156.964 34.6104 156.956 34.7029ZM154.061 33.3226C153.824 33.5398 153.684 33.8213 153.641 34.1705H156.262C156.22 33.8271 156.08 33.5453 155.842 33.3269C155.604 33.1097 155.306 33.0004 154.952 33.0004C154.597 33.0004 154.3 33.108 154.061 33.3226Z" fill="#0A1329"/>
<path d="M162.337 32.8262C162.641 33.1261 162.795 33.566 162.795 34.1476V36.4966H162.055V34.2318C162.055 33.8367 161.961 33.5396 161.771 33.3377C161.58 33.1386 161.308 33.0379 160.954 33.0379C160.553 33.0379 160.237 33.1557 160.006 33.3882C159.775 33.6223 159.659 33.9573 159.659 34.3945V36.4966H158.919V32.413H159.628V33.0308C159.778 32.8192 159.98 32.6583 160.234 32.5444C160.487 32.4311 160.777 32.375 161.1 32.375C161.62 32.375 162.032 32.5248 162.337 32.8262Z" fill="#0A1329"/>
<path d="M167.388 36.259C167.28 36.35 167.145 36.4201 166.987 36.4706C166.827 36.5181 166.663 36.5435 166.494 36.5435C166.082 36.5435 165.764 36.4329 165.538 36.2115C165.313 35.9913 165.199 35.6746 165.199 35.2628V33.0219H164.505V32.4124H165.199V31.5195H165.939V32.4124H167.11V33.0219H165.939V35.2334C165.939 35.4549 165.995 35.623 166.104 35.7419C166.215 35.8598 166.373 35.9186 166.578 35.9186C166.805 35.9186 166.997 35.8553 167.157 35.7266L167.388 36.259Z" fill="#0A1329"/>
<path d="M172.744 34.7029H169.43C169.475 35.0618 169.633 35.3504 169.904 35.5688C170.174 35.7875 170.509 35.8969 170.91 35.8969C171.398 35.8969 171.79 35.7315 172.088 35.4034L172.496 35.8813C172.311 36.0969 172.082 36.2611 171.807 36.3747C171.532 36.4868 171.225 36.5444 170.886 36.5444C170.454 36.5444 170.072 36.4546 169.738 36.2779C169.405 36.1015 169.147 35.8521 168.963 35.5339C168.781 35.2157 168.69 34.8555 168.69 34.456C168.69 34.0611 168.779 33.7022 168.956 33.384C169.133 33.0657 169.378 32.8179 169.688 32.6412C169.999 32.4632 170.349 32.375 170.741 32.375C171.13 32.375 171.479 32.4632 171.784 32.6412C172.09 32.8179 172.328 33.0657 172.501 33.384C172.672 33.7022 172.759 34.0679 172.759 34.4784C172.759 34.5362 172.753 34.6104 172.744 34.7029ZM169.849 33.3226C169.611 33.5398 169.471 33.8213 169.43 34.1705H172.049C172.009 33.8271 171.869 33.5453 171.63 33.3269C171.391 33.1097 171.095 33.0004 170.741 33.0004C170.384 33.0001 170.089 33.108 169.849 33.3226Z" fill="#0A1329"/>
</svg>
