<svg width="157" height="47" viewBox="0 0 157 47" fill="none" xmlns="http://www.w3.org/2000/svg">
<path d="M48.1273 45.94C42.2775 32.5311 36.4304 19.1217 30.5804 5.71227C30.5699 5.68832 30.5609 5.66577 30.5506 5.64159C29.6172 3.74612 28.8702 1.53609 27.1538 0.200452C26.7752 -0.093877 26.2943 0.02283 25.8273 0.02283H21.978H19.8802C19.136 0.02283 18.1414 1.66768 17.8668 2.22309C17.1447 3.68846 16.381 5.13941 15.7029 6.62361C14.203 9.90471 12.6756 13.1751 11.1703 16.4523C10.2134 18.5326 9.25924 20.6117 8.30231 22.6906C8.05464 23.2311 7.80581 23.7728 7.55815 24.3133C7.18352 25.1273 4.21854 23.5861 3.58833 23.3425C3.56252 23.332 3.53787 23.3218 3.51066 23.3113C3.39927 23.2686 3.30206 23.3592 3.26323 23.4513C2.17932 26.1267 1.09541 28.8008 0.00894854 31.4747C-0.0208176 31.5498 0.0270875 31.6693 0.1022 31.7016C2.9351 32.9303 5.85102 34.2513 8.93274 34.6763C12.4151 35.1584 15.0392 33.3594 16.8219 30.5236C18.0626 28.5523 18.9067 26.2576 19.8778 24.1462C20.3018 23.2209 20.779 22.3181 21.2043 21.3889C21.8668 19.9345 23.1814 17.4854 24.5635 19.867C26.1115 22.5378 27.1459 25.6304 28.3882 28.4484C30.412 33.0421 32.4359 37.6342 34.4609 42.2291C35.0274 43.5147 35.5953 44.8018 36.1632 46.0877C36.1904 46.1511 36.2708 46.1876 36.3369 46.1876C40.2083 46.2058 44.081 46.2253 47.9522 46.2446C48.1196 46.2446 48.1857 46.076 48.1273 45.94Z" fill="#5F9D84"/>
<path d="M28.0693 41.3144C28.0693 43.9313 25.9471 46.0532 23.3279 46.0532C20.7104 46.0532 18.5879 43.9313 18.5879 41.3144C18.5879 38.6973 20.7101 36.5742 23.3279 36.5742C25.9471 36.5742 28.0693 38.6973 28.0693 41.3144Z" fill="#CACACA"/>
<path d="M63.756 15.952C64.5727 16.6767 64.9813 17.7712 64.9813 19.2333V24.8481H62.3119V23.6222C61.774 24.5373 60.7757 24.9948 59.3104 24.9948C58.5546 24.9948 57.9 24.8662 57.3449 24.6098C56.79 24.3543 56.3647 24.0005 56.0731 23.5494C55.7801 23.0984 55.6348 22.5862 55.6348 22.0136C55.6348 21.099 55.9785 20.3797 56.6668 19.8562C57.3565 19.3312 58.4197 19.0694 59.8587 19.0694H62.1277C62.1277 18.4473 61.9384 17.9698 61.561 17.6338C61.1824 17.2981 60.6159 17.1309 59.8587 17.1309C59.335 17.1309 58.8202 17.2133 58.3146 17.3779C57.8077 17.542 57.3772 17.7649 57.0247 18.0453L55.9992 16.0518C56.5359 15.674 57.1789 15.381 57.9295 15.1736C58.6802 14.9663 59.4516 14.8633 60.2438 14.8633C61.767 14.8633 62.9391 15.2262 63.756 15.952ZM61.3224 22.7355C61.701 22.51 61.968 22.1789 62.1275 21.7395V20.7331H60.1711C59.0002 20.7331 58.413 21.1174 58.413 21.8867C58.413 22.251 58.5583 22.5412 58.8434 22.7546C59.1313 22.9685 59.5241 23.0747 60.0246 23.0747C60.5108 23.0747 60.9452 22.9617 61.3224 22.7355Z" fill="#0A1329"/>
<path d="M77.8397 15.0078V24.847H75.1326V23.6766C74.754 24.1044 74.3041 24.4296 73.779 24.6552C73.2553 24.8809 72.6888 24.9937 72.0781 24.9937C70.7854 24.9937 69.7624 24.6214 69.0055 23.8761C68.2497 23.1342 67.8711 22.0306 67.8711 20.5671V15.0078H70.7247V20.1472C70.7247 21.7318 71.3884 22.5244 72.7188 22.5244C73.402 22.5244 73.9517 22.3021 74.364 21.8569C74.7803 21.4115 74.9863 20.7505 74.9863 19.8731V15.0078H77.8397V15.0078Z" fill="#0A1329"/>
<path d="M87.2072 24.3712C86.926 24.5797 86.5821 24.7343 86.174 24.8378C85.7656 24.9414 85.3352 24.9935 84.884 24.9935C83.7132 24.9935 82.8069 24.6938 82.1665 24.0966C81.5272 23.5005 81.207 22.6221 81.207 21.4634V17.4218H79.6875V15.2281H81.207V12.832H84.0606V15.2281H86.5123V17.4218H84.0606V21.4271C84.0606 21.8412 84.1683 22.1627 84.3808 22.3876C84.5947 22.6131 84.8968 22.7261 85.2861 22.7261C85.737 22.7261 86.121 22.6042 86.4398 22.3599L87.2072 24.3712Z" fill="#0A1329"/>
<path d="M90.7655 24.3459C89.9421 23.913 89.2977 23.3115 88.8335 22.5429C88.3719 21.7748 88.1387 20.9038 88.1387 19.9279C88.1387 18.9519 88.3719 18.0807 88.8335 17.3128C89.2975 16.5442 89.9421 15.9446 90.7655 15.511C91.5873 15.0788 92.5168 14.8622 93.5529 14.8622C94.5912 14.8622 95.5169 15.0786 96.3339 15.511C97.1506 15.9446 97.791 16.544 98.2538 17.3128C98.7194 18.0807 98.9501 18.9519 98.9501 19.9279C98.9501 20.9038 98.7194 21.7748 98.2538 22.5429C97.791 23.3115 97.1506 23.913 96.3339 24.3459C95.5169 24.7774 94.5912 24.994 93.5529 24.994C92.5168 24.994 91.5873 24.7776 90.7655 24.3459ZM95.3563 21.9122C95.8258 21.4191 96.0602 20.7574 96.0602 19.9279C96.0602 19.099 95.8255 18.4372 95.3563 17.944C94.8856 17.4495 94.2854 17.2022 93.5529 17.2022C92.8229 17.2022 92.2187 17.4495 91.7429 17.944C91.2657 18.4374 91.0299 19.099 91.0299 19.9279C91.0299 20.7574 91.266 21.4191 91.7429 21.9122C92.2187 22.4055 92.8231 22.6531 93.5529 22.6531C94.2851 22.6531 94.8854 22.4055 95.3563 21.9122ZM94.3228 11.1133H97.3955L94.0842 13.7464H91.8529L94.3228 11.1133Z" fill="#0A1329"/>
<path d="M110.153 15.9609C110.904 16.692 111.278 17.7775 111.278 19.2157V24.8483H108.425V19.6544C108.425 18.8742 108.254 18.2923 107.911 17.908C107.572 17.5237 107.078 17.3319 106.431 17.3319C105.71 17.3319 105.138 17.5548 104.712 17.9993C104.285 18.4453 104.072 19.1051 104.072 19.9839V24.8483H101.219V15.0091H103.944V16.1608C104.32 15.7472 104.791 15.4278 105.352 15.2016C105.913 14.9753 106.528 14.8633 107.199 14.8633C108.42 14.863 109.405 15.2292 110.153 15.9609Z" fill="#0A1329"/>
<path d="M116.227 24.3452C115.404 23.9124 114.758 23.3123 114.296 22.5437C113.833 21.7756 113.602 20.9047 113.602 19.9287C113.602 18.9527 113.833 18.0816 114.296 17.3137C114.758 16.5451 115.404 15.9455 116.227 15.5126C117.05 15.0797 117.978 14.8633 119.014 14.8633C120.053 14.8633 120.978 15.0797 121.797 15.5126C122.613 15.9455 123.253 16.5451 123.717 17.3137C124.181 18.0816 124.412 18.9527 124.412 19.9287C124.412 20.9047 124.181 21.7756 123.717 22.5437C123.253 23.3123 122.613 23.9124 121.797 24.3452C120.978 24.7781 120.053 24.9948 119.014 24.9948C117.978 24.9948 117.05 24.7784 116.227 24.3452ZM120.818 21.913C121.287 21.4199 121.522 20.7575 121.522 19.9287C121.522 19.0999 121.287 18.438 120.818 17.9449C120.347 17.4504 119.748 17.2037 119.014 17.2037C118.284 17.2037 117.679 17.4506 117.204 17.9449C116.729 18.4382 116.491 19.0999 116.491 19.9287C116.491 20.7575 116.729 21.4199 117.204 21.913C117.679 22.407 118.284 22.6539 119.014 22.6539C119.748 22.6539 120.347 22.407 120.818 21.913Z" fill="#0A1329"/>
<path d="M142.221 15.9518C142.948 16.6765 143.311 17.7645 143.311 19.2157V24.8483H140.457V19.6544C140.457 18.8742 140.294 18.2923 139.971 17.908C139.648 17.5237 139.188 17.3319 138.589 17.3319C137.92 17.3319 137.388 17.5483 136.998 17.9812C136.609 18.4134 136.414 19.0576 136.414 19.9099V24.8483H133.559V19.6544C133.559 18.1063 132.938 17.3319 131.694 17.3319C131.034 17.3319 130.51 17.5483 130.12 17.9812C129.731 18.4134 129.535 19.0576 129.535 19.9099V24.8483H126.682V15.0091H129.408V16.1434C129.771 15.7293 130.221 15.4122 130.753 15.1918C131.281 14.9728 131.862 14.8633 132.498 14.8633C133.193 14.8633 133.821 15 134.383 15.2736C134.943 15.5491 135.394 15.9488 135.736 16.4726C136.139 15.9606 136.647 15.5645 137.263 15.2839C137.879 15.0032 138.553 14.8633 139.284 14.8633C140.516 14.863 141.496 15.226 142.221 15.9518Z" fill="#0A1329"/>
<path d="M148.242 24.3452C147.419 23.9124 146.773 23.3123 146.31 22.5437C145.847 21.7756 145.615 20.9047 145.615 19.9287C145.615 18.9527 145.847 18.0816 146.31 17.3137C146.773 16.5451 147.419 15.9455 148.242 15.5126C149.064 15.0797 149.994 14.8633 151.029 14.8633C152.067 14.8633 152.993 15.0797 153.81 15.5126C154.629 15.9455 155.269 16.5451 155.731 17.3137C156.195 18.0816 156.425 18.9527 156.425 19.9287C156.425 20.9047 156.195 21.7756 155.731 22.5437C155.269 23.3123 154.629 23.9124 153.81 24.3452C152.993 24.7781 152.067 24.9948 151.029 24.9948C149.994 24.9948 149.064 24.7784 148.242 24.3452ZM152.831 21.913C153.301 21.4199 153.537 20.7575 153.537 19.9287C153.537 19.0999 153.301 18.438 152.831 17.9449C152.362 17.4504 151.762 17.2037 151.029 17.2037C150.298 17.2037 149.694 17.4506 149.219 17.9449C148.742 18.4382 148.506 19.0999 148.506 19.9287C148.506 20.7575 148.743 21.4199 149.219 21.913C149.694 22.407 150.298 22.6539 151.029 22.6539C151.762 22.6539 152.362 22.407 152.831 21.913Z" fill="#0A1329"/>
<path d="M59.1893 29.2363C59.5602 29.546 59.7456 29.9698 59.7456 30.5115C59.7456 31.0534 59.5602 31.4784 59.1893 31.7869C58.8198 32.0966 58.3117 32.251 57.6647 32.251H56.4317V33.761H55.7188V28.7734H57.665C58.3114 28.7734 58.8198 28.9276 59.1893 29.2363ZM58.677 31.3424C58.9142 31.1492 59.0335 30.873 59.0335 30.5115C59.0335 30.15 58.9142 29.8738 58.677 29.6822C58.4384 29.4902 58.0935 29.393 57.6438 29.393H56.4315V31.6302H57.6438C58.0938 31.63 58.4384 31.5342 58.677 31.3424Z" fill="black"/>
<path d="M62.668 30.1201C62.9001 30.0062 63.1841 29.9492 63.5159 29.9492V30.6116C63.4782 30.6076 63.4264 30.6051 63.3592 30.6051C62.9897 30.6051 62.698 30.7155 62.4867 30.9357C62.2741 31.1572 62.169 31.4734 62.169 31.8805V33.7613H61.4844V29.9855H62.1404V30.6195C62.2585 30.4 62.4348 30.2345 62.668 30.1201Z" fill="black"/>
<path d="M65.7834 33.5549C65.4839 33.3889 65.2493 33.1597 65.0809 32.8679C64.9123 32.5749 64.8281 32.243 64.8281 31.8738C64.8281 31.5018 64.9123 31.1714 65.0809 30.8796C65.2495 30.5867 65.4841 30.3589 65.7834 30.1954C66.0818 30.0308 66.4201 29.9492 66.7948 29.9492C67.1708 29.9492 67.5066 30.0308 67.8036 30.1954C68.1003 30.3589 68.3338 30.5869 68.5024 30.8796C68.671 31.1714 68.7551 31.502 68.7551 31.8738C68.7551 32.2432 68.671 32.5752 68.5024 32.8679C68.3338 33.1597 68.1003 33.3889 67.8036 33.5549C67.5066 33.722 67.1708 33.805 66.7948 33.805C66.4201 33.805 66.0818 33.722 65.7834 33.5549ZM67.4482 33.039C67.6401 32.9262 67.7919 32.7693 67.9008 32.5673C68.0096 32.3664 68.0642 32.1355 68.0642 31.8738C68.0642 31.612 68.0098 31.3799 67.9008 31.1791C67.7919 30.977 67.6401 30.8215 67.4482 30.7111C67.255 30.6023 67.0373 30.5479 66.7948 30.5479C66.5525 30.5479 66.3357 30.6023 66.1427 30.7111C65.9509 30.8215 65.7978 30.977 65.6865 31.1791C65.5751 31.3799 65.5193 31.612 65.5193 31.8738C65.5193 32.1355 65.5751 32.3664 65.6865 32.5673C65.7978 32.7693 65.9509 32.9262 66.1427 33.039C66.3359 33.1504 66.5525 33.2061 66.7948 33.2061C67.0373 33.2061 67.255 33.1506 67.4482 33.039Z" fill="black"/>
<path d="M71.1761 33.5547C70.8741 33.3888 70.638 33.1595 70.4669 32.8678C70.2957 32.5748 70.209 32.2429 70.209 31.8737C70.209 31.5017 70.296 31.1714 70.4669 30.8796C70.638 30.5867 70.8738 30.3589 71.1761 30.1954C71.4768 30.0308 71.8205 29.9492 72.2056 29.9492C72.5479 29.9492 72.854 30.0192 73.1221 30.1552C73.3904 30.294 73.5979 30.4934 73.7444 30.7541L73.2258 31.0898C73.1065 30.9096 72.9588 30.7734 72.7837 30.6838C72.6075 30.5932 72.4116 30.5479 72.1991 30.5479C71.9514 30.5479 71.7284 30.6022 71.5326 30.711C71.3343 30.8215 71.1813 30.977 71.0685 31.179C70.9571 31.3799 70.9013 31.6119 70.9013 31.8737C70.9013 32.1396 70.9571 32.3726 71.0685 32.5751C71.1813 32.7771 71.3343 32.9329 71.5326 33.0417C71.7284 33.1507 71.9514 33.2063 72.1991 33.2063C72.4116 33.2063 72.6075 33.1609 72.7837 33.0703C72.9588 32.9808 73.1065 32.8459 73.2258 32.6646L73.7444 32.9924C73.5979 33.253 73.3904 33.4536 73.1221 33.5952C72.8537 33.7354 72.5477 33.8051 72.2056 33.8051C71.8205 33.8049 71.4768 33.7219 71.1761 33.5547Z" fill="black"/>
<path d="M78.8294 32.1023H75.7645C75.8073 32.4343 75.9537 32.7012 76.2026 32.9032C76.4528 33.1055 76.7628 33.2066 77.1323 33.2066C77.5848 33.2066 77.9478 33.0537 78.2239 32.7503L78.6011 33.1922C78.4299 33.3917 78.2174 33.5435 77.9646 33.6486C77.7093 33.7523 77.4253 33.8055 77.1116 33.8055C76.7123 33.8055 76.3584 33.7225 76.0498 33.5591C75.7398 33.3959 75.5026 33.1652 75.3329 32.8709C75.1643 32.5766 75.0801 32.2434 75.0801 31.874C75.0801 31.5088 75.1617 31.1768 75.3263 30.8824C75.4898 30.5881 75.7154 30.3589 76.0033 30.1954C76.2909 30.0308 76.6151 29.9492 76.977 29.9492C77.3374 29.9492 77.659 30.0308 77.943 30.1954C78.2255 30.3589 78.446 30.5881 78.6055 30.8824C78.7652 31.1768 78.8441 31.515 78.8441 31.8947C78.8436 31.9482 78.8397 32.0167 78.8294 32.1023ZM76.1521 30.8257C75.9331 31.0266 75.8021 31.287 75.7645 31.6099H78.1888C78.1499 31.2923 78.0202 31.0317 77.7999 30.8297C77.5781 30.6288 77.3046 30.5276 76.9765 30.5276C76.6486 30.5274 76.3737 30.6272 76.1521 30.8257Z" fill="black"/>
<path d="M80.8384 33.6791C80.5531 33.5961 80.3289 33.491 80.168 33.3616L80.4533 32.821C80.6191 32.9391 80.8203 33.0349 81.0589 33.1063C81.2963 33.1777 81.5361 33.2128 81.7798 33.2128C82.3775 33.2128 82.677 33.0417 82.677 32.7008C82.677 32.5855 82.6367 32.496 82.5563 32.4286C82.4758 32.3626 82.3735 32.3145 82.2528 32.2821C82.1312 32.2522 81.9598 32.2173 81.7368 32.1799C81.4319 32.132 81.1844 32.0776 80.9912 32.0164C80.7993 31.9541 80.6335 31.8504 80.4959 31.7028C80.3573 31.5561 80.2896 31.3478 80.2896 31.0819C80.2896 30.7397 80.4322 30.4662 80.7163 30.2589C81.0017 30.0527 81.384 29.9492 81.864 29.9492C82.1165 29.9492 82.3682 29.9801 82.6198 30.0422C82.8726 30.1033 83.0786 30.1861 83.2393 30.2912L82.9477 30.8329C82.6393 30.6334 82.2761 30.532 81.8575 30.532C81.5684 30.532 81.3468 30.5802 81.1938 30.6759C81.0421 30.772 80.9666 30.8963 80.9666 31.0533C80.9666 31.1762 81.0096 31.2734 81.0952 31.3462C81.1805 31.4176 81.2856 31.4692 81.4126 31.5017C81.537 31.5354 81.7149 31.5742 81.943 31.6156C82.2477 31.6677 82.4926 31.7247 82.6807 31.783C82.8688 31.8439 83.0281 31.9448 83.1616 32.0876C83.2951 32.2289 83.3611 32.4286 83.3611 32.6864C83.3611 33.0286 83.2146 33.2995 82.923 33.5017C82.63 33.7026 82.2316 33.8051 81.7289 33.8051C81.4205 33.8049 81.1238 33.7619 80.8384 33.6791Z" fill="black"/>
<path d="M85.6799 33.5549C85.3804 33.3889 85.1471 33.1597 84.9774 32.8679C84.8088 32.5749 84.7246 32.243 84.7246 31.8738C84.7246 31.5018 84.8088 31.1714 84.9774 30.8796C85.1471 30.5867 85.3804 30.3589 85.6799 30.1954C85.9794 30.0308 86.3164 29.9492 86.6924 29.9492C87.0671 29.9492 87.4042 30.0308 87.7012 30.1954C87.9979 30.3589 88.2312 30.5869 88.3998 30.8796C88.5686 31.1714 88.6528 31.502 88.6528 31.8738C88.6528 32.2432 88.5686 32.5752 88.3998 32.8679C88.2312 33.1597 87.9979 33.3889 87.7012 33.5549C87.4042 33.722 87.0671 33.805 86.6924 33.805C86.3164 33.805 85.9794 33.722 85.6799 33.5549ZM87.3447 33.039C87.5363 32.9262 87.6882 32.7693 87.797 32.5673C87.9061 32.3664 87.9617 32.1355 87.9617 31.8738C87.9617 31.612 87.9061 31.3799 87.797 31.1791C87.688 30.977 87.5363 30.8215 87.3447 30.7111C87.1515 30.6023 86.935 30.5479 86.6924 30.5479C86.4499 30.5479 86.2322 30.6023 86.0401 30.7111C85.8471 30.8215 85.6955 30.977 85.5839 31.1791C85.4725 31.3799 85.4164 31.612 85.4164 31.8738C85.4164 32.1355 85.4722 32.3664 85.5839 32.5673C85.6952 32.7693 85.8471 32.9262 86.0401 33.039C86.2322 33.1504 86.4499 33.2061 86.6924 33.2061C86.935 33.2061 87.1515 33.1506 87.3447 33.039Z" fill="black"/>
<path d="M94.0392 28.7734H93.3262V33.761H94.0392V28.7734Z" fill="black"/>
<path d="M99.4571 30.3665C99.7385 30.6439 99.8796 31.0507 99.8796 31.5887V33.7613H99.1953V31.6666C99.1953 31.3011 99.1085 31.0263 98.932 30.8396C98.7569 30.6555 98.5041 30.5623 98.176 30.5623C97.8067 30.5623 97.5135 30.6713 97.2995 30.8864C97.0856 31.1028 96.9793 31.4127 96.9793 31.817V33.7613H96.2949V29.9843H96.9509V30.5558C97.0881 30.36 97.2751 30.2112 97.5095 30.1059C97.7455 30.0011 98.0125 29.9492 98.312 29.9492C98.7918 29.9492 99.1729 30.0878 99.4571 30.3665Z" fill="black"/>
<path d="M105.588 28.4766V33.7637H104.933V33.1647C104.78 33.3747 104.589 33.5342 104.355 33.6432C104.122 33.7534 103.866 33.8078 103.586 33.8078C103.219 33.8078 102.891 33.726 102.602 33.5653C102.312 33.4033 102.085 33.1766 101.92 32.8848C101.757 32.5919 101.674 32.2562 101.674 31.8763C101.674 31.4952 101.757 31.1609 101.92 30.8719C102.085 30.5815 102.312 30.356 102.602 30.194C102.891 30.0322 103.219 29.9517 103.586 29.9517C103.856 29.9517 104.106 30.0022 104.334 30.1045C104.561 30.2082 104.752 30.3572 104.905 30.5581V28.4766H105.588V28.4766ZM104.292 33.0418C104.486 32.929 104.638 32.7721 104.748 32.57C104.857 32.3692 104.911 32.1383 104.911 31.8765C104.911 31.6147 104.857 31.3827 104.748 31.1818C104.638 30.9798 104.486 30.8243 104.292 30.7138C104.096 30.605 103.88 30.5506 103.643 30.5506C103.401 30.5506 103.183 30.605 102.99 30.7138C102.797 30.8243 102.645 30.9798 102.535 31.1818C102.422 31.3827 102.366 31.6147 102.366 31.8765C102.366 32.1383 102.422 32.3692 102.535 32.57C102.645 32.7721 102.797 32.929 102.99 33.0418C103.183 33.1531 103.401 33.2089 103.643 33.2089C103.88 33.2089 104.096 33.1534 104.292 33.0418Z" fill="black"/>
<path d="M111.142 32.1023H108.077C108.118 32.4343 108.265 32.7012 108.514 32.9032C108.764 33.1055 109.074 33.2066 109.445 33.2066C109.896 33.2066 110.259 33.0537 110.535 32.7503L110.914 33.1922C110.741 33.3917 110.53 33.5435 110.276 33.6486C110.02 33.7523 109.738 33.8055 109.423 33.8055C109.023 33.8055 108.671 33.7225 108.361 33.5591C108.053 33.3959 107.814 33.1652 107.644 32.8709C107.475 32.5766 107.393 32.2434 107.393 31.874C107.393 31.5088 107.473 31.1768 107.637 30.8824C107.801 30.5881 108.028 30.3589 108.316 30.1954C108.602 30.0308 108.926 29.9492 109.288 29.9492C109.649 29.9492 109.971 30.0308 110.254 30.1954C110.537 30.3589 110.757 30.5881 110.916 30.8824C111.076 31.1768 111.155 31.515 111.155 31.8947C111.155 31.9482 111.151 32.0167 111.142 32.1023ZM108.463 30.8257C108.243 31.0266 108.115 31.287 108.077 31.6099H110.5C110.461 31.2923 110.333 31.0317 110.112 30.8297C109.889 30.6288 109.616 30.5276 109.288 30.5276C108.96 30.5276 108.685 30.6272 108.463 30.8257Z" fill="black"/>
<path d="M115.946 30.1915C116.235 30.3535 116.462 30.579 116.625 30.8694C116.79 31.1584 116.872 31.493 116.872 31.8738C116.872 32.2537 116.79 32.5894 116.625 32.8823C116.462 33.1741 116.235 33.4005 115.946 33.5628C115.654 33.7235 115.327 33.8053 114.961 33.8053C114.691 33.8053 114.442 33.7521 114.217 33.6484C113.991 33.5433 113.799 33.3917 113.643 33.192V35.144H112.959V29.9841H113.614V30.5828C113.765 30.3742 113.958 30.2161 114.192 30.1099C114.424 30.0022 114.681 29.9492 114.961 29.9492C115.327 29.9492 115.654 30.0297 115.946 30.1915ZM115.557 33.0392C115.749 32.9265 115.902 32.7696 116.013 32.5675C116.125 32.3667 116.18 32.1358 116.18 31.874C116.18 31.6122 116.125 31.3802 116.013 31.1793C115.902 30.9773 115.749 30.8218 115.557 30.7113C115.364 30.6025 115.147 30.5481 114.905 30.5481C114.666 30.5481 114.452 30.6051 114.259 30.7155C114.067 30.8269 113.915 30.9824 113.803 31.1821C113.691 31.3816 113.635 31.6125 113.635 31.8742C113.635 32.136 113.691 32.3669 113.799 32.5678C113.909 32.7698 114.061 32.9267 114.256 33.0395C114.451 33.1509 114.666 33.2066 114.905 33.2066C115.147 33.2064 115.364 33.1508 115.557 33.0392Z" fill="black"/>
<path d="M122.076 32.1023H119.011C119.052 32.4343 119.199 32.7012 119.448 32.9032C119.698 33.1055 120.008 33.2066 120.378 33.2066C120.83 33.2066 121.194 33.0537 121.47 32.7503L121.847 33.1922C121.676 33.3917 121.464 33.5435 121.21 33.6486C120.955 33.7523 120.671 33.8055 120.358 33.8055C119.958 33.8055 119.604 33.7225 119.296 33.5591C118.987 33.3959 118.748 33.1652 118.579 32.8709C118.409 32.5766 118.326 32.2434 118.326 31.874C118.326 31.5088 118.408 31.1768 118.571 30.8824C118.736 30.5881 118.961 30.3589 119.249 30.1954C119.536 30.0308 119.861 29.9492 120.222 29.9492C120.584 29.9492 120.905 30.0308 121.189 30.1954C121.472 30.3589 121.692 30.5881 121.852 30.8824C122.01 31.1768 122.09 31.515 122.09 31.8947C122.09 31.9482 122.085 32.0167 122.076 32.1023ZM119.398 30.8257C119.178 31.0266 119.047 31.287 119.011 31.6099H121.434C121.397 31.2923 121.267 31.0317 121.045 30.8297C120.825 30.6288 120.55 30.5276 120.222 30.5276C119.894 30.5276 119.62 30.6272 119.398 30.8257Z" fill="black"/>
<path d="M127.055 30.3665C127.336 30.6439 127.478 31.0507 127.478 31.5887V33.7613H126.794V31.6666C126.794 31.3011 126.706 31.0263 126.531 30.8396C126.353 30.6555 126.102 30.5623 125.775 30.5623C125.404 30.5623 125.111 30.6713 124.897 30.8864C124.683 31.1028 124.577 31.4127 124.577 31.817V33.7613H123.893V29.9843H124.548V30.5558C124.686 30.36 124.873 30.2112 125.107 30.1059C125.343 30.0011 125.61 29.9492 125.909 29.9492C126.389 29.9492 126.771 30.0878 127.055 30.3665Z" fill="black"/>
<path d="M133.189 28.4766V33.7637H132.532V33.1647C132.381 33.3747 132.189 33.5342 131.956 33.6432C131.723 33.7534 131.467 33.8078 131.185 33.8078C130.82 33.8078 130.492 33.726 130.203 33.5653C129.913 33.4033 129.685 33.1766 129.52 32.8848C129.357 32.5919 129.275 32.2562 129.275 31.8763C129.275 31.4952 129.357 31.1609 129.52 30.8719C129.685 30.5815 129.913 30.356 130.203 30.194C130.491 30.0322 130.82 29.9517 131.185 29.9517C131.458 29.9517 131.706 30.0022 131.935 30.1045C132.163 30.2082 132.352 30.3572 132.505 30.5581V28.4766H133.189V28.4766ZM131.892 33.0418C132.088 32.929 132.238 32.7721 132.348 32.57C132.457 32.3692 132.512 32.1383 132.512 31.8765C132.512 31.6147 132.457 31.3827 132.348 31.1818C132.238 30.9798 132.088 30.8243 131.892 30.7138C131.696 30.605 131.48 30.5506 131.242 30.5506C131.001 30.5506 130.783 30.605 130.59 30.7138C130.398 30.8243 130.245 30.9798 130.135 31.1818C130.022 31.3827 129.966 31.6147 129.966 31.8765C129.966 32.1383 130.022 32.3692 130.135 32.57C130.245 32.7721 130.398 32.929 130.59 33.0418C130.783 33.1531 131.001 33.2089 131.242 33.2089C131.48 33.2089 131.696 33.1534 131.892 33.0418Z" fill="black"/>
<path d="M135.353 29.1307C135.266 29.0449 135.221 28.94 135.221 28.8168C135.221 28.6936 135.266 28.5873 135.353 28.4992C135.44 28.4111 135.551 28.3672 135.683 28.3672C135.817 28.3672 135.928 28.41 136.015 28.4916C136.103 28.5757 136.148 28.6782 136.148 28.8026C136.148 28.931 136.103 29.0386 136.015 29.1267C135.928 29.2148 135.817 29.2576 135.683 29.2576C135.551 29.2574 135.44 29.216 135.353 29.1307ZM135.342 29.9846H136.027V33.7615H135.342V29.9846Z" fill="black"/>
<path d="M141.589 32.1023H138.522C138.565 32.4343 138.712 32.7012 138.961 32.9032C139.211 33.1055 139.521 33.2066 139.89 33.2066C140.343 33.2066 140.706 33.0537 140.982 32.7503L141.359 33.1922C141.188 33.3917 140.975 33.5435 140.721 33.6486C140.467 33.7523 140.183 33.8055 139.869 33.8055C139.472 33.8055 139.116 33.7225 138.808 33.5591C138.499 33.3959 138.26 33.1652 138.091 32.8709C137.922 32.5766 137.838 32.2434 137.838 31.874C137.838 31.5088 137.92 31.1768 138.084 30.8824C138.248 30.5881 138.475 30.3589 138.761 30.1954C139.049 30.0308 139.373 29.9492 139.735 29.9492C140.095 29.9492 140.417 30.0308 140.701 30.1954C140.983 30.3589 141.204 30.5881 141.363 30.8824C141.523 31.1768 141.602 31.515 141.602 31.8947C141.602 31.9482 141.596 32.0167 141.589 32.1023ZM138.91 30.8257C138.691 31.0266 138.561 31.287 138.522 31.6099H140.947C140.908 31.2923 140.778 31.0317 140.558 30.8297C140.338 30.6288 140.062 30.5276 139.735 30.5276C139.407 30.5276 139.132 30.6272 138.91 30.8257Z" fill="black"/>
<path d="M146.566 30.3665C146.848 30.6439 146.991 31.0507 146.991 31.5887V33.7613H146.306V31.6666C146.306 31.3011 146.219 31.0263 146.043 30.8396C145.866 30.6555 145.615 30.5623 145.287 30.5623C144.916 30.5623 144.623 30.6713 144.41 30.8864C144.196 31.1028 144.089 31.4127 144.089 31.817V33.7613H143.404V29.9843H144.061V30.5558C144.199 30.36 144.386 30.2112 144.621 30.1059C144.855 30.0011 145.123 29.9492 145.422 29.9492C145.903 29.9492 146.284 30.0878 146.566 30.3665Z" fill="black"/>
<path d="M151.24 33.5399C151.14 33.624 151.015 33.6889 150.869 33.7356C150.721 33.7796 150.569 33.8031 150.412 33.8031C150.031 33.8031 149.737 33.7008 149.528 33.4959C149.319 33.2923 149.214 32.9993 149.214 32.6185V30.5459H148.572V29.982H149.214V29.1562H149.899V29.982H150.983V30.5459H149.899V32.5913C149.899 32.7961 149.951 32.9517 150.052 33.0616C150.154 33.1707 150.3 33.2251 150.49 33.2251C150.7 33.2251 150.878 33.1665 151.025 33.0475L151.24 33.5399Z" fill="black"/>
<path d="M156.196 32.1023H153.13C153.171 32.4343 153.318 32.7012 153.568 32.9032C153.818 33.1055 154.128 33.2066 154.499 33.2066C154.95 33.2066 155.313 33.0537 155.589 32.7503L155.967 33.1922C155.795 33.3917 155.583 33.5435 155.328 33.6486C155.075 33.7523 154.791 33.8055 154.477 33.8055C154.077 33.8055 153.723 33.7225 153.415 33.5591C153.106 33.3959 152.868 33.1652 152.698 32.8709C152.529 32.5766 152.445 32.2434 152.445 31.874C152.445 31.5088 152.527 31.1768 152.692 30.8824C152.855 30.5881 153.082 30.3589 153.368 30.1954C153.656 30.0308 153.98 29.9492 154.342 29.9492C154.703 29.9492 155.025 30.0308 155.308 30.1954C155.591 30.3589 155.811 30.5881 155.971 30.8824C156.129 31.1768 156.209 31.515 156.209 31.8947C156.209 31.9482 156.204 32.0167 156.196 32.1023ZM153.518 30.8257C153.297 31.0266 153.168 31.287 153.13 31.6099H155.553C155.515 31.2923 155.386 31.0317 155.165 30.8297C154.944 30.6288 154.67 30.5276 154.342 30.5276C154.013 30.5274 153.739 30.6272 153.518 30.8257Z" fill="black"/>
</svg>
